<svg version="1.1" id="Layer_1" xmlns="http://www.w3.org/2000/svg" xmlns:xlink="http://www.w3.org/1999/xlink" x="0px" y="0px"
	 width="100%" viewBox="0 0 222 222" enable-background="new 0 0 222 222" xml:space="preserve">
<path fill="#000101" opacity="1.000000" stroke="none" 
	d="
M124.000000,223.000000 
	C84.000000,223.000000 44.499786,222.944092 5.000392,223.098526 
	C1.574284,223.111908 0.897673,222.424362 0.903666,218.999832 
	C1.030828,146.333405 1.000000,73.666679 1.000000,1.000010 
	C73.666656,1.000000 146.333374,1.030829 218.999802,0.903670 
	C222.424255,0.897678 223.102524,1.575522 223.096390,5.000139 
	C222.968597,76.333244 222.968613,147.666687 223.096390,218.999786 
	C223.102524,222.424240 222.426773,223.117981 218.999512,223.099579 
	C187.500397,222.930511 156.000015,223.000000 124.000000,223.000000 
z"/>
<path fill="#01C5B0" opacity="1.000000" stroke="none" 
	d="
M168.212082,159.245743 
	C167.363800,158.654144 166.768738,158.290665 166.016663,157.712982 
	C165.714874,156.745575 165.142456,156.527466 164.244217,156.204590 
	C162.508331,155.005280 161.020782,154.007690 159.293945,152.769714 
	C158.537567,152.293930 158.012070,152.154068 157.206085,152.515884 
	C144.545609,163.327133 130.764984,171.959427 116.330772,179.584702 
	C112.304825,181.711533 108.334770,180.938324 104.434120,178.811066 
	C91.413948,171.710510 79.016357,163.680191 67.364784,154.493744 
	C66.071060,153.473740 64.964699,151.383698 62.406170,152.948318 
	C61.837734,153.218353 61.594856,153.422821 61.175217,153.786743 
	C55.198025,159.382858 48.480263,163.567657 41.570526,168.012756 
	C40.644733,168.414108 39.939919,168.472565 39.231300,169.156555 
	C33.670750,173.599686 27.695730,176.843658 21.579189,179.770096 
	C16.087410,182.397598 10.117940,180.224487 7.564565,175.103806 
	C5.026284,170.013397 6.920805,164.043961 12.096988,160.974945 
	C18.796520,157.002777 25.517590,153.066910 32.561157,149.038391 
	C33.397045,148.549973 34.070152,148.522003 34.754646,147.918533 
	C38.310104,145.028778 41.628502,142.280518 45.172672,139.863281 
	C47.905399,137.999466 47.940815,136.624771 45.693642,134.146576 
	C36.373585,123.868332 28.637016,112.588127 24.927679,98.598961 
	C24.831562,98.045654 24.721802,97.866394 24.536247,97.381073 
	C20.677174,80.900475 22.231014,65.266754 31.040598,51.124504 
	C46.676937,26.023111 82.810501,26.762098 97.911644,52.156418 
	C109.329704,71.357193 107.637947,100.263756 94.280022,118.267776 
	C92.290779,120.948914 90.903412,124.112572 88.415344,126.870819 
	C87.794861,127.247955 87.511314,127.512291 87.188187,128.105408 
	C86.444511,129.332535 85.852386,130.335098 85.115654,131.216827 
	C79.843460,137.526581 79.838005,137.513519 86.309746,142.311005 
	C93.274391,147.473877 100.564575,152.136063 107.978630,156.623077 
	C110.222755,157.981232 112.071770,158.190094 114.357971,156.650482 
	C120.708031,152.374115 127.397095,148.568481 133.499924,143.975815 
	C135.563248,142.423080 138.153580,142.318512 140.138184,139.772400 
	C142.601395,136.612259 141.141541,135.609772 139.522934,133.779968 
	C129.927292,122.932465 121.632767,111.166397 118.620781,96.797203 
	C114.455750,76.927185 116.606628,57.873951 131.987106,43.093819 
	C150.993332,24.829439 182.419617,31.214088 193.788605,55.337658 
	C202.725510,74.300659 201.893753,93.393234 192.381012,112.069786 
	C188.427765,119.831253 183.531799,127.021683 177.506638,133.261795 
	C174.169449,136.718018 174.926102,138.251343 178.412491,140.781525 
	C188.269363,147.934967 198.381302,154.630676 209.142990,160.350525 
	C215.054474,163.492462 217.306992,168.610550 215.356934,173.900391 
	C212.988831,180.324265 206.400894,182.587463 199.671082,179.307297 
	C190.407333,174.792068 182.185776,168.605194 173.566208,163.056702 
	C172.197266,162.175507 170.840485,161.275482 169.257050,160.115341 
	C168.845795,159.722305 168.655548,159.598068 168.212082,159.245743 
z"/>
<path fill="#01B29F" opacity="1.000000" stroke="none" 
	d="
M157.309418,152.579620 
	C157.375381,151.631744 157.960709,151.252991 158.967728,152.330750 
	C158.589844,152.524704 158.125046,152.520111 157.309418,152.579620 
z"/>
<path fill="#01C5B0" opacity="1.000000" stroke="none" 
	d="
M39.421604,169.391022 
	C39.608433,169.075653 40.115192,168.681046 40.931038,168.185471 
	C40.740597,168.493591 40.241062,168.902679 39.421604,169.391022 
z"/>
<path fill="#01B29F" opacity="1.000000" stroke="none" 
	d="
M164.133057,156.282639 
	C164.512772,156.322845 165.029648,156.642807 165.703094,157.230789 
	C165.329849,157.186661 164.800049,156.874542 164.133057,156.282639 
z"/>
<path fill="#01C5B0" opacity="1.000000" stroke="none" 
	d="
M34.590519,147.705185 
	C34.419487,148.008530 33.944462,148.382538 33.181183,148.858948 
	C33.357456,148.566193 33.821991,148.171021 34.590519,147.705185 
z"/>
<path fill="#01C5B0" opacity="1.000000" stroke="none" 
	d="
M87.358414,128.234100 
	C87.316025,128.073883 87.528473,127.761879 87.932175,127.240891 
	C87.953377,127.382042 87.783318,127.732162 87.358414,128.234100 
z"/>
<path fill="#01C5B0" opacity="1.000000" stroke="none" 
	d="
M61.235710,153.875763 
	C61.208637,153.703110 61.447643,153.493515 61.898048,153.165649 
	C61.891266,153.293381 61.688717,153.557190 61.235710,153.875763 
z"/>
<path fill="#01C5B0" opacity="1.000000" stroke="none" 
	d="
M24.459743,97.293869 
	C24.596598,97.317406 24.713345,97.568794 24.876009,98.027054 
	C24.688759,98.049675 24.527998,97.812271 24.459743,97.293869 
z"/>
<path fill="#01B29F" opacity="1.000000" stroke="none" 
	d="
M168.054993,159.246689 
	C168.266434,159.097717 168.531631,159.251053 168.895248,159.662109 
	C168.674423,159.881973 168.379456,159.758377 168.054993,159.246689 
z"/>
<path fill="#000302" opacity="1.000000" stroke="none" 
	d="
M45.710304,68.234528 
	C47.954525,63.855057 50.019211,59.676857 54.037018,57.030872 
	C59.907322,53.164902 66.085976,53.082214 72.791176,55.958427 
	C73.170265,56.048199 73.452522,56.454922 73.689796,56.525452 
	C85.572289,67.544846 86.369637,80.960556 82.292496,95.208466 
	C79.436989,105.187302 72.915916,113.074524 66.094437,121.096634 
	C65.755310,121.455971 65.594437,121.507378 65.362610,121.801987 
	C64.249031,122.574539 63.395782,122.283829 62.648560,121.456673 
	C51.300110,108.894257 41.959232,95.480827 44.046432,77.272163 
	C44.286148,75.180939 44.740498,73.114311 45.094772,70.620872 
	C45.381054,69.662277 45.337502,69.037453 45.710304,68.234528 
z"/>
<path fill="#000303" opacity="1.000000" stroke="none" 
	d="
M178.722290,80.347069 
	C179.103333,97.385498 170.337173,109.746178 159.883179,121.319138 
	C159.022766,122.271637 158.328125,122.591667 156.993423,121.637169 
	C141.508087,110.562988 133.656677,83.238846 141.181274,66.098778 
	C144.387787,58.794746 149.768036,54.122887 157.969879,53.972973 
	C166.148331,53.823486 171.750397,58.123402 175.160767,65.437737 
	C176.577179,68.475571 177.528809,71.646515 178.013794,74.958031 
	C178.255051,76.605247 178.456482,78.258301 178.722290,80.347069 
z"/>
<path fill="#01C5B0" opacity="1.000000" stroke="none" 
	d="
M34.280807,64.938660 
	C33.928364,64.858154 33.707031,64.673172 33.485703,64.488182 
	C33.715458,64.316200 33.945217,64.144226 34.174973,63.972248 
	C34.253956,64.259552 34.332939,64.546860 34.280807,64.938660 
z"/>
<path fill="#01C5B0" opacity="1.000000" stroke="none" 
	d="
M45.694267,68.095673 
	C45.779060,68.593582 45.660740,69.187393 45.318317,69.993332 
	C44.866024,69.463112 44.654102,68.723961 45.694267,68.095673 
z"/>
<path fill="#01C5B0" opacity="1.000000" stroke="none" 
	d="
M65.405518,121.947662 
	C65.270630,121.792191 65.368195,121.599220 65.750267,121.435410 
	C65.797714,121.565384 65.665436,121.713905 65.405518,121.947662 
z"/>
<path fill="#01C5B0" opacity="1.000000" stroke="none" 
	d="
M73.808334,56.493996 
	C73.927071,56.595978 73.563423,56.610062 73.563423,56.610062 
	C73.563423,56.610062 73.269135,56.396152 73.219696,56.222176 
	C73.353065,56.148174 73.526169,56.262779 73.808334,56.493996 
z"/>
</svg>